<svg width="414" height="301" viewBox="0 0 414 301" fill="none" xmlns="http://www.w3.org/2000/svg">
<path d="M170.875 196.961H174.777V235H171.227L170.875 226.211V196.961ZM171.508 217.316L173.336 217.246C173.336 219.918 173.125 222.379 172.703 224.629C172.281 226.855 171.613 228.801 170.699 230.465C169.809 232.129 168.648 233.418 167.219 234.332C165.812 235.246 164.113 235.703 162.121 235.703C160.551 235.703 159.098 235.387 157.762 234.754C156.449 234.121 155.324 233.066 154.387 231.59C153.449 230.09 152.781 228.062 152.383 225.508L151.855 219.145H154.352C154.352 221.77 154.551 223.926 154.949 225.613C155.348 227.301 155.887 228.613 156.566 229.551C157.27 230.488 158.078 231.145 158.992 231.52C159.906 231.871 160.867 232.047 161.875 232.047C163.844 232.047 165.449 231.684 166.691 230.957C167.934 230.207 168.906 229.164 169.609 227.828C170.312 226.492 170.805 224.934 171.086 223.152C171.367 221.348 171.508 219.402 171.508 217.316ZM150.484 196.961H154.352V249.625H150.484V196.961ZM198.016 235.738C195.906 235.738 193.961 235.398 192.18 234.719C190.422 234.016 188.898 232.961 187.609 231.555C186.344 230.125 185.359 228.332 184.656 226.176C183.953 223.996 183.602 221.43 183.602 218.477V214.082C183.602 210.941 183.977 208.246 184.727 205.996C185.477 203.723 186.484 201.871 187.75 200.441C189.039 198.988 190.504 197.934 192.145 197.277C193.785 196.598 195.52 196.258 197.348 196.258C199.434 196.258 201.262 196.598 202.832 197.277C204.426 197.957 205.762 198.988 206.84 200.371C207.918 201.754 208.727 203.5 209.266 205.609C209.805 207.695 210.074 210.168 210.074 213.027V216.297H185.957V212.641H206.172V211.656C206.125 209.172 205.773 207.062 205.117 205.328C204.484 203.57 203.523 202.234 202.234 201.32C200.969 200.383 199.352 199.914 197.383 199.914C195.93 199.914 194.594 200.184 193.375 200.723C192.156 201.238 191.102 202.059 190.211 203.184C189.344 204.309 188.676 205.773 188.207 207.578C187.762 209.383 187.539 211.551 187.539 214.082V218.477C187.539 220.797 187.785 222.812 188.277 224.523C188.793 226.211 189.52 227.617 190.457 228.742C191.395 229.844 192.52 230.676 193.832 231.238C195.145 231.777 196.598 232.047 198.191 232.047C200.16 232.047 201.883 231.719 203.359 231.062C204.836 230.383 206.148 229.363 207.297 228.004L209.371 230.605C208.668 231.52 207.801 232.375 206.77 233.172C205.738 233.945 204.508 234.566 203.078 235.035C201.648 235.504 199.961 235.738 198.016 235.738ZM230.781 196.961V200.477H214.539V196.961H230.781ZM220.375 187.223H224.312V225.719C224.312 227.477 224.5 228.801 224.875 229.691C225.25 230.582 225.742 231.18 226.352 231.484C226.961 231.766 227.617 231.906 228.32 231.906C228.859 231.906 229.363 231.871 229.832 231.801C230.324 231.73 230.758 231.637 231.133 231.52L231.273 235.105C230.828 235.293 230.254 235.434 229.551 235.527C228.871 235.645 228.145 235.703 227.371 235.703C226.059 235.703 224.875 235.398 223.82 234.789C222.766 234.156 221.922 233.113 221.289 231.66C220.68 230.207 220.375 228.215 220.375 225.684V187.223ZM258.73 228.18V207.473C258.73 205.691 258.426 204.25 257.816 203.148C257.207 202.023 256.316 201.203 255.145 200.688C253.973 200.172 252.531 199.914 250.82 199.914C249.203 199.914 247.762 200.242 246.496 200.898C245.254 201.531 244.281 202.422 243.578 203.57C242.898 204.695 242.559 205.996 242.559 207.473L238.656 207.438C238.656 205.984 238.949 204.59 239.535 203.254C240.121 201.895 240.953 200.699 242.031 199.668C243.109 198.613 244.398 197.781 245.898 197.172C247.422 196.562 249.109 196.258 250.961 196.258C253.234 196.258 255.25 196.621 257.008 197.348C258.766 198.074 260.137 199.27 261.121 200.934C262.129 202.598 262.633 204.801 262.633 207.543V226.984C262.633 228.32 262.715 229.691 262.879 231.098C263.066 232.504 263.312 233.652 263.617 234.543V235H259.469C259.211 234.18 259.023 233.137 258.906 231.871C258.789 230.582 258.73 229.352 258.73 228.18ZM259.539 212.781L259.645 216.121H252.895C251.066 216.121 249.461 216.32 248.078 216.719C246.695 217.117 245.535 217.691 244.598 218.441C243.684 219.191 242.992 220.082 242.523 221.113C242.055 222.145 241.82 223.316 241.82 224.629C241.82 226.316 242.09 227.699 242.629 228.777C243.168 229.832 243.953 230.617 244.984 231.133C246.039 231.625 247.293 231.871 248.746 231.871C250.668 231.871 252.355 231.496 253.809 230.746C255.285 229.973 256.492 228.953 257.43 227.688C258.367 226.398 258.977 225.039 259.258 223.609L260.312 226C260.078 227.078 259.645 228.18 259.012 229.305C258.379 230.43 257.559 231.484 256.551 232.469C255.543 233.43 254.348 234.215 252.965 234.824C251.582 235.434 250.023 235.738 248.289 235.738C246.203 235.738 244.375 235.34 242.805 234.543C241.258 233.746 240.051 232.539 239.184 230.922C238.34 229.305 237.918 227.312 237.918 224.945C237.918 223.188 238.211 221.57 238.797 220.094C239.406 218.617 240.309 217.34 241.504 216.262C242.699 215.16 244.199 214.305 246.004 213.695C247.809 213.086 249.906 212.781 252.297 212.781H259.539Z" fill="#333333"/>
<path fill-rule="evenodd" clip-rule="evenodd" d="M177 158C204.614 158 227 135.614 227 108C227 80.3858 204.614 58 177 58C149.386 58 127 80.3858 127 108C127 135.614 149.386 158 177 158ZM177 168C210.137 168 237 141.137 237 108C237 74.8629 210.137 48 177 48C143.863 48 117 74.8629 117 108C117 141.137 143.863 168 177 168ZM237 158C264.614 158 287 135.614 287 108C287 80.3858 264.614 58 237 58C209.386 58 187 80.3858 187 108C187 135.614 209.386 158 237 158ZM237 168C270.137 168 297 141.137 297 108C297 74.8629 270.137 48 237 48C203.863 48 177 74.8629 177 108C177 141.137 203.863 168 237 168Z" fill="#333333"/>
</svg>
